<?xml version="1.0" standalone="no"?>
<!DOCTYPE svg PUBLIC "-//W3C//DTD SVG 20010904//EN"
 "http://www.w3.org/TR/2001/REC-SVG-20010904/DTD/svg10.dtd">
<svg version="1.0" xmlns="http://www.w3.org/2000/svg"
 width="200.000000pt" height="200.000000pt" viewBox="0 0 200.000000 200.000000"
 preserveAspectRatio="xMidYMid meet">
<metadata>
Created by potrace 1.11, written by Peter Selinger 2001-2013
</metadata>
<g transform="translate(0.000000,200.000000) scale(0.100000,-0.100000)"
fill="#000000" stroke="none">
<path d="M450 1752 c-41 -1 -85 -4 -97 -7 -27 -6 -71 -49 -82 -79 -5 -11 -8
-246 -7 -521 l1 -500 725 -2 c399 -1 732 0 740 3 13 3 15 65 14 486 -1 266 -5
498 -8 517 -8 40 -45 90 -67 90 -9 1 -18 4 -21 7 -6 5 -1055 11 -1198 6z
m1111 -220 c0 -20 2 -45 4 -54 2 -10 0 -18 -4 -18 -4 0 -6 -12 -5 -27 2 -16 3
-40 3 -55 1 -16 1 -40 2 -55 4 -147 3 -183 -4 -183 -5 0 -6 -4 -3 -9 5 -7 6
-37 6 -111 0 -8 0 -52 1 -98 1 -45 -2 -86 -5 -90 -12 -12 -1106 -9 -1107 3 -1
5 -2 173 -3 372 l-1 363 557 0 558 0 1 -38z"/>
<path d="M1109 1382 c-31 -33 -34 -41 -25 -63 6 -13 33 -46 60 -72 55 -53 56
-47 -21 -123 -24 -23 -43 -51 -43 -62 0 -31 60 -84 88 -77 22 5 132 112 132
128 0 5 5 5 10 2 6 -3 10 -1 10 5 0 7 11 21 25 32 30 24 33 63 5 80 -11 7 -20
19 -20 26 0 7 -4 10 -10 7 -5 -3 -10 -1 -10 4 0 16 -137 151 -152 151 -7 -1
-29 -18 -49 -38z"/>
<path d="M727 1313 c-53 -53 -98 -101 -99 -108 -2 -7 41 -60 95 -118 79 -85
103 -105 123 -102 26 2 84 56 84 78 0 7 -25 37 -55 67 -30 30 -55 59 -55 64 0
5 25 35 55 66 40 43 53 63 50 80 -2 13 -6 23 -7 24 -2 1 -13 10 -25 20 -45 38
-63 30 -166 -71z"/>
<path d="M90 528 c-19 -20 -20 -92 -2 -124 6 -12 9 -24 7 -26 -10 -9 65 -79
100 -93 30 -13 150 -15 815 -15 598 0 786 3 803 13 41 23 66 44 60 51 -3 3 -1
6 5 6 6 0 21 18 32 40 25 49 27 132 3 151 -13 11 -85 14 -370 14 l-355 0 -13
-31 c-20 -49 -47 -59 -170 -61 -98 -1 -114 1 -142 20 -18 12 -37 33 -43 47
l-11 25 -351 0 c-322 0 -353 -1 -368 -17z"/>
</g>
</svg>
