<?xml version="1.0" standalone="no"?>
<!DOCTYPE svg PUBLIC "-//W3C//DTD SVG 20010904//EN"
 "http://www.w3.org/TR/2001/REC-SVG-20010904/DTD/svg10.dtd">
<svg version="1.0" xmlns="http://www.w3.org/2000/svg"
 width="200.000000pt" height="200.000000pt" viewBox="0 0 200.000000 200.000000"
 preserveAspectRatio="xMidYMid meet">
<metadata>
Created by potrace 1.14, written by Peter Selinger 2001-2017
</metadata>
<g transform="translate(0.000000,200.000000) scale(0.100000,-0.100000)"
fill="#000000" stroke="none">
<path d="M339 1896 c-2 -3 -16 -6 -29 -8 -27 -4 -86 -31 -110 -51 -31 -24 -78
-93 -90 -132 -10 -31 -13 -187 -13 -715 0 -658 0 -676 20 -721 28 -62 81 -119
140 -149 l48 -25 685 0 c782 0 742 -4 832 87 80 82 78 57 78 813 0 735 1 725
-66 803 -20 24 -59 55 -88 70 l-51 27 -676 3 c-371 1 -677 1 -680 -2z"/>
</g>
</svg>
